<?xml version="1.0" encoding="utf-8" standalone="no"?>
<!DOCTYPE svg PUBLIC "-//W3C//DTD SVG 1.1//EN"
  "http://www.w3.org/Graphics/SVG/1.1/DTD/svg11.dtd">
<svg xmlns:xlink="http://www.w3.org/1999/xlink" width="508.68pt" height="633.024pt" viewBox="0 0 508.68 633.024" xmlns="http://www.w3.org/2000/svg" version="1.1">
 <metadata>
  <rdf:RDF xmlns:dc="http://purl.org/dc/elements/1.1/" xmlns:cc="http://creativecommons.org/ns#" xmlns:rdf="http://www.w3.org/1999/02/22-rdf-syntax-ns#">
   <cc:Work>
    <dc:type rdf:resource="http://purl.org/dc/dcmitype/StillImage"/>
    <dc:date>2026-02-16T09:15:41.642705</dc:date>
    <dc:format>image/svg+xml</dc:format>
    <dc:creator>
     <cc:Agent>
      <dc:title>Matplotlib v3.10.3, https://matplotlib.org/</dc:title>
     </cc:Agent>
    </dc:creator>
   </cc:Work>
  </rdf:RDF>
 </metadata>
 <defs>
  <style type="text/css">*{stroke-linejoin: round; stroke-linecap: butt}</style>
 </defs>
 <g id="figure_1">
  <g id="patch_1">
   <path d="M 0 633.024 
L 508.68 633.024 
L 508.68 0 
L 0 0 
z
" style="fill: #ffffff"/>
  </g>
  <g id="axes_1">
   <g id="patch_2">
    <path d="M 45.7812 151.92576 
L 305.208 151.92576 
Q 315.3816 151.92576 315.3816 139.26528 
L 315.3816 88.62336 
Q 315.3816 75.96288 305.208 75.96288 
L 45.7812 75.96288 
Q 35.6076 75.96288 35.6076 88.62336 
L 35.6076 139.26528 
Q 35.6076 151.92576 45.7812 151.92576 
z
" clip-path="url(#p97f089424d)" style="fill: #f0f0f0; stroke: #333333; stroke-width: 3.5; stroke-linejoin: miter"/>
   </g>
   <g id="patch_3">
    <path d="M 350.9892 142.4304 
L 483.246 142.4304 
Q 493.4196 142.4304 493.4196 129.76992 
L 493.4196 98.11872 
Q 493.4196 85.45824 483.246 85.45824 
L 350.9892 85.45824 
Q 340.8156 85.45824 340.8156 98.11872 
L 340.8156 129.76992 
Q 340.8156 142.4304 350.9892 142.4304 
z
" clip-path="url(#p97f089424d)" style="fill: #ffffff; stroke: #333333; stroke-width: 3.5; stroke-linejoin: miter"/>
   </g>
   <g id="patch_4">
    <path d="M 45.7812 297.52128 
L 305.208 297.52128 
Q 315.3816 297.52128 315.3816 284.8608 
L 315.3816 234.21888 
Q 315.3816 221.5584 305.208 221.5584 
L 45.7812 221.5584 
Q 35.6076 221.5584 35.6076 234.21888 
L 35.6076 284.8608 
Q 35.6076 297.52128 45.7812 297.52128 
z
" clip-path="url(#p97f089424d)" style="fill: #f0f0f0; stroke: #333333; stroke-width: 3.5; stroke-linejoin: miter"/>
   </g>
   <g id="patch_5">
    <path d="M 350.9892 288.02592 
L 483.246 288.02592 
Q 493.4196 288.02592 493.4196 275.36544 
L 493.4196 243.71424 
Q 493.4196 231.05376 483.246 231.05376 
L 350.9892 231.05376 
Q 340.8156 231.05376 340.8156 243.71424 
L 340.8156 275.36544 
Q 340.8156 288.02592 350.9892 288.02592 
z
" clip-path="url(#p97f089424d)" style="fill: #ffffff; stroke: #333333; stroke-width: 3.5; stroke-linejoin: miter"/>
   </g>
   <g id="patch_6">
    <path d="M 45.7812 443.1168 
L 305.208 443.1168 
Q 315.3816 443.1168 315.3816 430.45632 
L 315.3816 379.8144 
Q 315.3816 367.15392 305.208 367.15392 
L 45.7812 367.15392 
Q 35.6076 367.15392 35.6076 379.8144 
L 35.6076 430.45632 
Q 35.6076 443.1168 45.7812 443.1168 
z
" clip-path="url(#p97f089424d)" style="fill: #f0f0f0; stroke: #333333; stroke-width: 3.5; stroke-linejoin: miter"/>
   </g>
   <g id="patch_7">
    <path d="M 350.9892 476.35056 
L 483.246 476.35056 
Q 493.4196 476.35056 493.4196 463.69008 
L 493.4196 346.58064 
Q 493.4196 333.92016 483.246 333.92016 
L 350.9892 333.92016 
Q 340.8156 333.92016 340.8156 346.58064 
L 340.8156 463.69008 
Q 340.8156 476.35056 350.9892 476.35056 
z
" clip-path="url(#p97f089424d)" style="fill: #ffffff; stroke: #333333; stroke-width: 3.5; stroke-linejoin: miter"/>
   </g>
   <g id="patch_8">
    <path d="M 45.7812 569.7216 
L 305.208 569.7216 
Q 315.3816 569.7216 315.3816 557.06112 
L 315.3816 510.217344 
Q 315.3816 497.556864 305.208 497.556864 
L 45.7812 497.556864 
Q 35.6076 497.556864 35.6076 510.217344 
L 35.6076 557.06112 
Q 35.6076 569.7216 45.7812 569.7216 
z
" clip-path="url(#p97f089424d)" style="fill: #f0f0f0; stroke: #333333; stroke-width: 3.5; stroke-linejoin: miter"/>
   </g>
   <g id="patch_9">
    <path d="M 175.4946 153.927528 
Q 175.4946 186.741958 175.4946 216.425892 
" clip-path="url(#p97f089424d)" style="fill: none; stroke: #333333; stroke-width: 2.8; stroke-linecap: round"/>
    <path d="M 179.0946 209.225892 
L 175.4946 216.425892 
L 171.8946 209.225892 
z
" clip-path="url(#p97f089424d)" style="fill: #333333; stroke: #333333; stroke-width: 2.8; stroke-linecap: round"/>
   </g>
   <g id="patch_10">
    <path d="M 175.4946 299.523048 
Q 175.4946 332.337478 175.4946 362.021412 
" clip-path="url(#p97f089424d)" style="fill: none; stroke: #333333; stroke-width: 2.8; stroke-linecap: round"/>
    <path d="M 179.0946 354.821412 
L 175.4946 362.021412 
L 171.8946 354.821412 
z
" clip-path="url(#p97f089424d)" style="fill: #333333; stroke: #333333; stroke-width: 2.8; stroke-linecap: round"/>
   </g>
   <g id="patch_11">
    <path d="M 175.4946 445.113777 
Q 175.4946 470.335048 175.4946 492.425824 
" clip-path="url(#p97f089424d)" style="fill: none; stroke: #333333; stroke-width: 2.8; stroke-linecap: round"/>
    <path d="M 179.0946 485.225824 
L 175.4946 492.425824 
L 171.8946 485.225824 
z
" clip-path="url(#p97f089424d)" style="fill: #333333; stroke: #333333; stroke-width: 2.8; stroke-linecap: round"/>
   </g>
   <g id="patch_12">
    <path d="M 317.384155 113.94432 
Q 328.100208 113.94432 335.685766 113.94432 
" clip-path="url(#p97f089424d)" style="fill: none; stroke-dasharray: 28,19.6; stroke-dashoffset: 0; stroke: #333333; stroke-width: 2.8; stroke-linecap: round"/>
    <path d="M 328.485766 110.34432 
L 335.685766 113.94432 
L 328.485766 117.54432 
z
" clip-path="url(#p97f089424d)" style="fill: #333333; stroke-dasharray: 28,19.6; stroke-dashoffset: 0; stroke: #333333; stroke-width: 2.8; stroke-linecap: round"/>
   </g>
   <g id="patch_13">
    <path d="M 317.384155 259.53984 
Q 328.100208 259.53984 335.685766 259.53984 
" clip-path="url(#p97f089424d)" style="fill: none; stroke-dasharray: 28,19.6; stroke-dashoffset: 0; stroke: #333333; stroke-width: 2.8; stroke-linecap: round"/>
    <path d="M 328.485766 255.93984 
L 335.685766 259.53984 
L 328.485766 263.13984 
z
" clip-path="url(#p97f089424d)" style="fill: #333333; stroke-dasharray: 28,19.6; stroke-dashoffset: 0; stroke: #333333; stroke-width: 2.8; stroke-linecap: round"/>
   </g>
   <g id="patch_14">
    <path d="M 317.384155 405.13536 
Q 328.100208 405.13536 335.685766 405.13536 
" clip-path="url(#p97f089424d)" style="fill: none; stroke-dasharray: 28,19.6; stroke-dashoffset: 0; stroke: #333333; stroke-width: 2.8; stroke-linecap: round"/>
    <path d="M 328.485766 401.53536 
L 335.685766 405.13536 
L 328.485766 408.73536 
z
" clip-path="url(#p97f089424d)" style="fill: #333333; stroke-dasharray: 28,19.6; stroke-dashoffset: 0; stroke: #333333; stroke-width: 2.8; stroke-linecap: round"/>
   </g>
   <g id="text_1">
    <!-- PRISMA-ScR Flow Diagram -->
    <g style="fill: #111111" transform="translate(89.682031 40.801007) scale(0.22 -0.22)">
     <defs>
      <path id="DejaVuSans-Bold-50" d="M 588 4666 
L 2584 4666 
Q 3475 4666 3951 4270 
Q 4428 3875 4428 3144 
Q 4428 2409 3951 2014 
Q 3475 1619 2584 1619 
L 1791 1619 
L 1791 0 
L 588 0 
L 588 4666 
z
M 1791 3794 
L 1791 2491 
L 2456 2491 
Q 2806 2491 2997 2661 
Q 3188 2831 3188 3144 
Q 3188 3456 2997 3625 
Q 2806 3794 2456 3794 
L 1791 3794 
z
" transform="scale(0.015625)"/>
      <path id="DejaVuSans-Bold-52" d="M 2297 2597 
Q 2675 2597 2839 2737 
Q 3003 2878 3003 3200 
Q 3003 3519 2839 3656 
Q 2675 3794 2297 3794 
L 1791 3794 
L 1791 2597 
L 2297 2597 
z
M 1791 1766 
L 1791 0 
L 588 0 
L 588 4666 
L 2425 4666 
Q 3347 4666 3776 4356 
Q 4206 4047 4206 3378 
Q 4206 2916 3982 2619 
Q 3759 2322 3309 2181 
Q 3556 2125 3751 1926 
Q 3947 1728 4147 1325 
L 4800 0 
L 3519 0 
L 2950 1159 
Q 2778 1509 2601 1637 
Q 2425 1766 2131 1766 
L 1791 1766 
z
" transform="scale(0.015625)"/>
      <path id="DejaVuSans-Bold-49" d="M 588 4666 
L 1791 4666 
L 1791 0 
L 588 0 
L 588 4666 
z
" transform="scale(0.015625)"/>
      <path id="DejaVuSans-Bold-53" d="M 3834 4519 
L 3834 3531 
Q 3450 3703 3084 3790 
Q 2719 3878 2394 3878 
Q 1963 3878 1756 3759 
Q 1550 3641 1550 3391 
Q 1550 3203 1689 3098 
Q 1828 2994 2194 2919 
L 2706 2816 
Q 3484 2659 3812 2340 
Q 4141 2022 4141 1434 
Q 4141 663 3683 286 
Q 3225 -91 2284 -91 
Q 1841 -91 1394 -6 
Q 947 78 500 244 
L 500 1259 
Q 947 1022 1364 901 
Q 1781 781 2169 781 
Q 2563 781 2772 912 
Q 2981 1044 2981 1288 
Q 2981 1506 2839 1625 
Q 2697 1744 2272 1838 
L 1806 1941 
Q 1106 2091 782 2419 
Q 459 2747 459 3303 
Q 459 4000 909 4375 
Q 1359 4750 2203 4750 
Q 2588 4750 2994 4692 
Q 3400 4634 3834 4519 
z
" transform="scale(0.015625)"/>
      <path id="DejaVuSans-Bold-4d" d="M 588 4666 
L 2119 4666 
L 3181 2169 
L 4250 4666 
L 5778 4666 
L 5778 0 
L 4641 0 
L 4641 3413 
L 3566 897 
L 2803 897 
L 1728 3413 
L 1728 0 
L 588 0 
L 588 4666 
z
" transform="scale(0.015625)"/>
      <path id="DejaVuSans-Bold-41" d="M 3419 850 
L 1538 850 
L 1241 0 
L 31 0 
L 1759 4666 
L 3194 4666 
L 4922 0 
L 3713 0 
L 3419 850 
z
M 1838 1716 
L 3116 1716 
L 2478 3572 
L 1838 1716 
z
" transform="scale(0.015625)"/>
      <path id="DejaVuSans-Bold-2d" d="M 347 2297 
L 2309 2297 
L 2309 1388 
L 347 1388 
L 347 2297 
z
" transform="scale(0.015625)"/>
      <path id="DejaVuSans-Bold-63" d="M 3366 3391 
L 3366 2478 
Q 3138 2634 2908 2709 
Q 2678 2784 2431 2784 
Q 1963 2784 1702 2511 
Q 1441 2238 1441 1747 
Q 1441 1256 1702 982 
Q 1963 709 2431 709 
Q 2694 709 2930 787 
Q 3166 866 3366 1019 
L 3366 103 
Q 3103 6 2833 -42 
Q 2563 -91 2291 -91 
Q 1344 -91 809 395 
Q 275 881 275 1747 
Q 275 2613 809 3098 
Q 1344 3584 2291 3584 
Q 2566 3584 2833 3536 
Q 3100 3488 3366 3391 
z
" transform="scale(0.015625)"/>
      <path id="DejaVuSans-Bold-20" transform="scale(0.015625)"/>
      <path id="DejaVuSans-Bold-46" d="M 588 4666 
L 3834 4666 
L 3834 3756 
L 1791 3756 
L 1791 2888 
L 3713 2888 
L 3713 1978 
L 1791 1978 
L 1791 0 
L 588 0 
L 588 4666 
z
" transform="scale(0.015625)"/>
      <path id="DejaVuSans-Bold-6c" d="M 538 4863 
L 1656 4863 
L 1656 0 
L 538 0 
L 538 4863 
z
" transform="scale(0.015625)"/>
      <path id="DejaVuSans-Bold-6f" d="M 2203 2784 
Q 1831 2784 1636 2517 
Q 1441 2250 1441 1747 
Q 1441 1244 1636 976 
Q 1831 709 2203 709 
Q 2569 709 2762 976 
Q 2956 1244 2956 1747 
Q 2956 2250 2762 2517 
Q 2569 2784 2203 2784 
z
M 2203 3584 
Q 3106 3584 3614 3096 
Q 4122 2609 4122 1747 
Q 4122 884 3614 396 
Q 3106 -91 2203 -91 
Q 1297 -91 786 396 
Q 275 884 275 1747 
Q 275 2609 786 3096 
Q 1297 3584 2203 3584 
z
" transform="scale(0.015625)"/>
      <path id="DejaVuSans-Bold-77" d="M 225 3500 
L 1313 3500 
L 1900 1088 
L 2491 3500 
L 3425 3500 
L 4013 1113 
L 4603 3500 
L 5691 3500 
L 4769 0 
L 3547 0 
L 2956 2406 
L 2369 0 
L 1147 0 
L 225 3500 
z
" transform="scale(0.015625)"/>
      <path id="DejaVuSans-Bold-44" d="M 1791 3756 
L 1791 909 
L 2222 909 
Q 2959 909 3348 1275 
Q 3738 1641 3738 2338 
Q 3738 3031 3350 3393 
Q 2963 3756 2222 3756 
L 1791 3756 
z
M 588 4666 
L 1856 4666 
Q 2919 4666 3439 4514 
Q 3959 4363 4331 4000 
Q 4659 3684 4818 3271 
Q 4978 2859 4978 2338 
Q 4978 1809 4818 1395 
Q 4659 981 4331 666 
Q 3956 303 3431 151 
Q 2906 0 1856 0 
L 588 0 
L 588 4666 
z
" transform="scale(0.015625)"/>
      <path id="DejaVuSans-Bold-69" d="M 538 3500 
L 1656 3500 
L 1656 0 
L 538 0 
L 538 3500 
z
M 538 4863 
L 1656 4863 
L 1656 3950 
L 538 3950 
L 538 4863 
z
" transform="scale(0.015625)"/>
      <path id="DejaVuSans-Bold-61" d="M 2106 1575 
Q 1756 1575 1579 1456 
Q 1403 1338 1403 1106 
Q 1403 894 1545 773 
Q 1688 653 1941 653 
Q 2256 653 2472 879 
Q 2688 1106 2688 1447 
L 2688 1575 
L 2106 1575 
z
M 3816 1997 
L 3816 0 
L 2688 0 
L 2688 519 
Q 2463 200 2181 54 
Q 1900 -91 1497 -91 
Q 953 -91 614 226 
Q 275 544 275 1050 
Q 275 1666 698 1953 
Q 1122 2241 2028 2241 
L 2688 2241 
L 2688 2328 
Q 2688 2594 2478 2717 
Q 2269 2841 1825 2841 
Q 1466 2841 1156 2769 
Q 847 2697 581 2553 
L 581 3406 
Q 941 3494 1303 3539 
Q 1666 3584 2028 3584 
Q 2975 3584 3395 3211 
Q 3816 2838 3816 1997 
z
" transform="scale(0.015625)"/>
      <path id="DejaVuSans-Bold-67" d="M 2919 594 
Q 2688 288 2409 144 
Q 2131 0 1766 0 
Q 1125 0 706 504 
Q 288 1009 288 1791 
Q 288 2575 706 3076 
Q 1125 3578 1766 3578 
Q 2131 3578 2409 3434 
Q 2688 3291 2919 2981 
L 2919 3500 
L 4044 3500 
L 4044 353 
Q 4044 -491 3511 -936 
Q 2978 -1381 1966 -1381 
Q 1638 -1381 1331 -1331 
Q 1025 -1281 716 -1178 
L 716 -306 
Q 1009 -475 1290 -558 
Q 1572 -641 1856 -641 
Q 2406 -641 2662 -400 
Q 2919 -159 2919 353 
L 2919 594 
z
M 2181 2772 
Q 1834 2772 1640 2515 
Q 1447 2259 1447 1791 
Q 1447 1309 1634 1061 
Q 1822 813 2181 813 
Q 2531 813 2725 1069 
Q 2919 1325 2919 1791 
Q 2919 2259 2725 2515 
Q 2531 2772 2181 2772 
z
" transform="scale(0.015625)"/>
      <path id="DejaVuSans-Bold-72" d="M 3138 2547 
Q 2991 2616 2845 2648 
Q 2700 2681 2553 2681 
Q 2122 2681 1889 2404 
Q 1656 2128 1656 1613 
L 1656 0 
L 538 0 
L 538 3500 
L 1656 3500 
L 1656 2925 
Q 1872 3269 2151 3426 
Q 2431 3584 2822 3584 
Q 2878 3584 2943 3579 
Q 3009 3575 3134 3559 
L 3138 2547 
z
" transform="scale(0.015625)"/>
      <path id="DejaVuSans-Bold-6d" d="M 3781 2919 
Q 3994 3244 4286 3414 
Q 4578 3584 4928 3584 
Q 5531 3584 5847 3212 
Q 6163 2841 6163 2131 
L 6163 0 
L 5038 0 
L 5038 1825 
Q 5041 1866 5042 1909 
Q 5044 1953 5044 2034 
Q 5044 2406 4934 2573 
Q 4825 2741 4581 2741 
Q 4263 2741 4089 2478 
Q 3916 2216 3909 1719 
L 3909 0 
L 2784 0 
L 2784 1825 
Q 2784 2406 2684 2573 
Q 2584 2741 2328 2741 
Q 2006 2741 1831 2477 
Q 1656 2213 1656 1722 
L 1656 0 
L 531 0 
L 531 3500 
L 1656 3500 
L 1656 2988 
Q 1863 3284 2130 3434 
Q 2397 3584 2719 3584 
Q 3081 3584 3359 3409 
Q 3638 3234 3781 2919 
z
" transform="scale(0.015625)"/>
     </defs>
     <use xlink:href="#DejaVuSans-Bold-50"/>
     <use xlink:href="#DejaVuSans-Bold-52" transform="translate(73.291016 0)"/>
     <use xlink:href="#DejaVuSans-Bold-49" transform="translate(150.292969 0)"/>
     <use xlink:href="#DejaVuSans-Bold-53" transform="translate(187.5 0)"/>
     <use xlink:href="#DejaVuSans-Bold-4d" transform="translate(259.521484 0)"/>
     <use xlink:href="#DejaVuSans-Bold-41" transform="translate(359.033203 0)"/>
     <use xlink:href="#DejaVuSans-Bold-2d" transform="translate(436.425781 0)"/>
     <use xlink:href="#DejaVuSans-Bold-53" transform="translate(477.929688 0)"/>
     <use xlink:href="#DejaVuSans-Bold-63" transform="translate(549.951172 0)"/>
     <use xlink:href="#DejaVuSans-Bold-52" transform="translate(609.228516 0)"/>
     <use xlink:href="#DejaVuSans-Bold-20" transform="translate(686.230469 0)"/>
     <use xlink:href="#DejaVuSans-Bold-46" transform="translate(721.044922 0)"/>
     <use xlink:href="#DejaVuSans-Bold-6c" transform="translate(789.355469 0)"/>
     <use xlink:href="#DejaVuSans-Bold-6f" transform="translate(823.632812 0)"/>
     <use xlink:href="#DejaVuSans-Bold-77" transform="translate(892.333984 0)"/>
     <use xlink:href="#DejaVuSans-Bold-20" transform="translate(984.716797 0)"/>
     <use xlink:href="#DejaVuSans-Bold-44" transform="translate(1019.53125 0)"/>
     <use xlink:href="#DejaVuSans-Bold-69" transform="translate(1102.539062 0)"/>
     <use xlink:href="#DejaVuSans-Bold-61" transform="translate(1136.816406 0)"/>
     <use xlink:href="#DejaVuSans-Bold-67" transform="translate(1204.296875 0)"/>
     <use xlink:href="#DejaVuSans-Bold-72" transform="translate(1275.878906 0)"/>
     <use xlink:href="#DejaVuSans-Bold-61" transform="translate(1325.195312 0)"/>
     <use xlink:href="#DejaVuSans-Bold-6d" transform="translate(1392.675781 0)"/>
    </g>
   </g>
   <g id="text_2">
    <!-- IDENTIFICATION -->
    <g style="fill: #111111" transform="translate(94.466475 105.997505) scale(0.18 -0.18)">
     <defs>
      <path id="DejaVuSans-Bold-45" d="M 588 4666 
L 3834 4666 
L 3834 3756 
L 1791 3756 
L 1791 2888 
L 3713 2888 
L 3713 1978 
L 1791 1978 
L 1791 909 
L 3903 909 
L 3903 0 
L 588 0 
L 588 4666 
z
" transform="scale(0.015625)"/>
      <path id="DejaVuSans-Bold-4e" d="M 588 4666 
L 1931 4666 
L 3628 1466 
L 3628 4666 
L 4769 4666 
L 4769 0 
L 3425 0 
L 1728 3200 
L 1728 0 
L 588 0 
L 588 4666 
z
" transform="scale(0.015625)"/>
      <path id="DejaVuSans-Bold-54" d="M 31 4666 
L 4331 4666 
L 4331 3756 
L 2784 3756 
L 2784 0 
L 1581 0 
L 1581 3756 
L 31 3756 
L 31 4666 
z
" transform="scale(0.015625)"/>
      <path id="DejaVuSans-Bold-43" d="M 4288 256 
Q 3956 84 3597 -3 
Q 3238 -91 2847 -91 
Q 1681 -91 1000 561 
Q 319 1213 319 2328 
Q 319 3447 1000 4098 
Q 1681 4750 2847 4750 
Q 3238 4750 3597 4662 
Q 3956 4575 4288 4403 
L 4288 3438 
Q 3953 3666 3628 3772 
Q 3303 3878 2944 3878 
Q 2300 3878 1931 3465 
Q 1563 3053 1563 2328 
Q 1563 1606 1931 1193 
Q 2300 781 2944 781 
Q 3303 781 3628 887 
Q 3953 994 4288 1222 
L 4288 256 
z
" transform="scale(0.015625)"/>
      <path id="DejaVuSans-Bold-4f" d="M 2719 3878 
Q 2169 3878 1866 3472 
Q 1563 3066 1563 2328 
Q 1563 1594 1866 1187 
Q 2169 781 2719 781 
Q 3272 781 3575 1187 
Q 3878 1594 3878 2328 
Q 3878 3066 3575 3472 
Q 3272 3878 2719 3878 
z
M 2719 4750 
Q 3844 4750 4481 4106 
Q 5119 3463 5119 2328 
Q 5119 1197 4481 553 
Q 3844 -91 2719 -91 
Q 1597 -91 958 553 
Q 319 1197 319 2328 
Q 319 3463 958 4106 
Q 1597 4750 2719 4750 
z
" transform="scale(0.015625)"/>
     </defs>
     <use xlink:href="#DejaVuSans-Bold-49"/>
     <use xlink:href="#DejaVuSans-Bold-44" transform="translate(37.207031 0)"/>
     <use xlink:href="#DejaVuSans-Bold-45" transform="translate(120.214844 0)"/>
     <use xlink:href="#DejaVuSans-Bold-4e" transform="translate(188.525391 0)"/>
     <use xlink:href="#DejaVuSans-Bold-54" transform="translate(272.216797 0)"/>
     <use xlink:href="#DejaVuSans-Bold-49" transform="translate(340.429688 0)"/>
     <use xlink:href="#DejaVuSans-Bold-46" transform="translate(377.636719 0)"/>
     <use xlink:href="#DejaVuSans-Bold-49" transform="translate(445.947266 0)"/>
     <use xlink:href="#DejaVuSans-Bold-43" transform="translate(483.154297 0)"/>
     <use xlink:href="#DejaVuSans-Bold-41" transform="translate(556.542969 0)"/>
     <use xlink:href="#DejaVuSans-Bold-54" transform="translate(626.185547 0)"/>
     <use xlink:href="#DejaVuSans-Bold-49" transform="translate(694.398438 0)"/>
     <use xlink:href="#DejaVuSans-Bold-4f" transform="translate(731.605469 0)"/>
     <use xlink:href="#DejaVuSans-Bold-4e" transform="translate(816.615234 0)"/>
    </g>
   </g>
   <g id="text_3">
    <!-- Records identified from databases -->
    <g style="fill: #111111" transform="translate(55.618506 122.365218) scale(0.14 -0.14)">
     <defs>
      <path id="DejaVuSans-52" d="M 2841 2188 
Q 3044 2119 3236 1894 
Q 3428 1669 3622 1275 
L 4263 0 
L 3584 0 
L 2988 1197 
Q 2756 1666 2539 1819 
Q 2322 1972 1947 1972 
L 1259 1972 
L 1259 0 
L 628 0 
L 628 4666 
L 2053 4666 
Q 2853 4666 3247 4331 
Q 3641 3997 3641 3322 
Q 3641 2881 3436 2590 
Q 3231 2300 2841 2188 
z
M 1259 4147 
L 1259 2491 
L 2053 2491 
Q 2509 2491 2742 2702 
Q 2975 2913 2975 3322 
Q 2975 3731 2742 3939 
Q 2509 4147 2053 4147 
L 1259 4147 
z
" transform="scale(0.015625)"/>
      <path id="DejaVuSans-65" d="M 3597 1894 
L 3597 1613 
L 953 1613 
Q 991 1019 1311 708 
Q 1631 397 2203 397 
Q 2534 397 2845 478 
Q 3156 559 3463 722 
L 3463 178 
Q 3153 47 2828 -22 
Q 2503 -91 2169 -91 
Q 1331 -91 842 396 
Q 353 884 353 1716 
Q 353 2575 817 3079 
Q 1281 3584 2069 3584 
Q 2775 3584 3186 3129 
Q 3597 2675 3597 1894 
z
M 3022 2063 
Q 3016 2534 2758 2815 
Q 2500 3097 2075 3097 
Q 1594 3097 1305 2825 
Q 1016 2553 972 2059 
L 3022 2063 
z
" transform="scale(0.015625)"/>
      <path id="DejaVuSans-63" d="M 3122 3366 
L 3122 2828 
Q 2878 2963 2633 3030 
Q 2388 3097 2138 3097 
Q 1578 3097 1268 2742 
Q 959 2388 959 1747 
Q 959 1106 1268 751 
Q 1578 397 2138 397 
Q 2388 397 2633 464 
Q 2878 531 3122 666 
L 3122 134 
Q 2881 22 2623 -34 
Q 2366 -91 2075 -91 
Q 1284 -91 818 406 
Q 353 903 353 1747 
Q 353 2603 823 3093 
Q 1294 3584 2113 3584 
Q 2378 3584 2631 3529 
Q 2884 3475 3122 3366 
z
" transform="scale(0.015625)"/>
      <path id="DejaVuSans-6f" d="M 1959 3097 
Q 1497 3097 1228 2736 
Q 959 2375 959 1747 
Q 959 1119 1226 758 
Q 1494 397 1959 397 
Q 2419 397 2687 759 
Q 2956 1122 2956 1747 
Q 2956 2369 2687 2733 
Q 2419 3097 1959 3097 
z
M 1959 3584 
Q 2709 3584 3137 3096 
Q 3566 2609 3566 1747 
Q 3566 888 3137 398 
Q 2709 -91 1959 -91 
Q 1206 -91 779 398 
Q 353 888 353 1747 
Q 353 2609 779 3096 
Q 1206 3584 1959 3584 
z
" transform="scale(0.015625)"/>
      <path id="DejaVuSans-72" d="M 2631 2963 
Q 2534 3019 2420 3045 
Q 2306 3072 2169 3072 
Q 1681 3072 1420 2755 
Q 1159 2438 1159 1844 
L 1159 0 
L 581 0 
L 581 3500 
L 1159 3500 
L 1159 2956 
Q 1341 3275 1631 3429 
Q 1922 3584 2338 3584 
Q 2397 3584 2469 3576 
Q 2541 3569 2628 3553 
L 2631 2963 
z
" transform="scale(0.015625)"/>
      <path id="DejaVuSans-64" d="M 2906 2969 
L 2906 4863 
L 3481 4863 
L 3481 0 
L 2906 0 
L 2906 525 
Q 2725 213 2448 61 
Q 2172 -91 1784 -91 
Q 1150 -91 751 415 
Q 353 922 353 1747 
Q 353 2572 751 3078 
Q 1150 3584 1784 3584 
Q 2172 3584 2448 3432 
Q 2725 3281 2906 2969 
z
M 947 1747 
Q 947 1113 1208 752 
Q 1469 391 1925 391 
Q 2381 391 2643 752 
Q 2906 1113 2906 1747 
Q 2906 2381 2643 2742 
Q 2381 3103 1925 3103 
Q 1469 3103 1208 2742 
Q 947 2381 947 1747 
z
" transform="scale(0.015625)"/>
      <path id="DejaVuSans-73" d="M 2834 3397 
L 2834 2853 
Q 2591 2978 2328 3040 
Q 2066 3103 1784 3103 
Q 1356 3103 1142 2972 
Q 928 2841 928 2578 
Q 928 2378 1081 2264 
Q 1234 2150 1697 2047 
L 1894 2003 
Q 2506 1872 2764 1633 
Q 3022 1394 3022 966 
Q 3022 478 2636 193 
Q 2250 -91 1575 -91 
Q 1294 -91 989 -36 
Q 684 19 347 128 
L 347 722 
Q 666 556 975 473 
Q 1284 391 1588 391 
Q 1994 391 2212 530 
Q 2431 669 2431 922 
Q 2431 1156 2273 1281 
Q 2116 1406 1581 1522 
L 1381 1569 
Q 847 1681 609 1914 
Q 372 2147 372 2553 
Q 372 3047 722 3315 
Q 1072 3584 1716 3584 
Q 2034 3584 2315 3537 
Q 2597 3491 2834 3397 
z
" transform="scale(0.015625)"/>
      <path id="DejaVuSans-20" transform="scale(0.015625)"/>
      <path id="DejaVuSans-69" d="M 603 3500 
L 1178 3500 
L 1178 0 
L 603 0 
L 603 3500 
z
M 603 4863 
L 1178 4863 
L 1178 4134 
L 603 4134 
L 603 4863 
z
" transform="scale(0.015625)"/>
      <path id="DejaVuSans-6e" d="M 3513 2113 
L 3513 0 
L 2938 0 
L 2938 2094 
Q 2938 2591 2744 2837 
Q 2550 3084 2163 3084 
Q 1697 3084 1428 2787 
Q 1159 2491 1159 1978 
L 1159 0 
L 581 0 
L 581 3500 
L 1159 3500 
L 1159 2956 
Q 1366 3272 1645 3428 
Q 1925 3584 2291 3584 
Q 2894 3584 3203 3211 
Q 3513 2838 3513 2113 
z
" transform="scale(0.015625)"/>
      <path id="DejaVuSans-74" d="M 1172 4494 
L 1172 3500 
L 2356 3500 
L 2356 3053 
L 1172 3053 
L 1172 1153 
Q 1172 725 1289 603 
Q 1406 481 1766 481 
L 2356 481 
L 2356 0 
L 1766 0 
Q 1100 0 847 248 
Q 594 497 594 1153 
L 594 3053 
L 172 3053 
L 172 3500 
L 594 3500 
L 594 4494 
L 1172 4494 
z
" transform="scale(0.015625)"/>
      <path id="DejaVuSans-66" d="M 2375 4863 
L 2375 4384 
L 1825 4384 
Q 1516 4384 1395 4259 
Q 1275 4134 1275 3809 
L 1275 3500 
L 2222 3500 
L 2222 3053 
L 1275 3053 
L 1275 0 
L 697 0 
L 697 3053 
L 147 3053 
L 147 3500 
L 697 3500 
L 697 3744 
Q 697 4328 969 4595 
Q 1241 4863 1831 4863 
L 2375 4863 
z
" transform="scale(0.015625)"/>
      <path id="DejaVuSans-6d" d="M 3328 2828 
Q 3544 3216 3844 3400 
Q 4144 3584 4550 3584 
Q 5097 3584 5394 3201 
Q 5691 2819 5691 2113 
L 5691 0 
L 5113 0 
L 5113 2094 
Q 5113 2597 4934 2840 
Q 4756 3084 4391 3084 
Q 3944 3084 3684 2787 
Q 3425 2491 3425 1978 
L 3425 0 
L 2847 0 
L 2847 2094 
Q 2847 2600 2669 2842 
Q 2491 3084 2119 3084 
Q 1678 3084 1418 2786 
Q 1159 2488 1159 1978 
L 1159 0 
L 581 0 
L 581 3500 
L 1159 3500 
L 1159 2956 
Q 1356 3278 1631 3431 
Q 1906 3584 2284 3584 
Q 2666 3584 2933 3390 
Q 3200 3197 3328 2828 
z
" transform="scale(0.015625)"/>
      <path id="DejaVuSans-61" d="M 2194 1759 
Q 1497 1759 1228 1600 
Q 959 1441 959 1056 
Q 959 750 1161 570 
Q 1363 391 1709 391 
Q 2188 391 2477 730 
Q 2766 1069 2766 1631 
L 2766 1759 
L 2194 1759 
z
M 3341 1997 
L 3341 0 
L 2766 0 
L 2766 531 
Q 2569 213 2275 61 
Q 1981 -91 1556 -91 
Q 1019 -91 701 211 
Q 384 513 384 1019 
Q 384 1609 779 1909 
Q 1175 2209 1959 2209 
L 2766 2209 
L 2766 2266 
Q 2766 2663 2505 2880 
Q 2244 3097 1772 3097 
Q 1472 3097 1187 3025 
Q 903 2953 641 2809 
L 641 3341 
Q 956 3463 1253 3523 
Q 1550 3584 1831 3584 
Q 2591 3584 2966 3190 
Q 3341 2797 3341 1997 
z
" transform="scale(0.015625)"/>
      <path id="DejaVuSans-62" d="M 3116 1747 
Q 3116 2381 2855 2742 
Q 2594 3103 2138 3103 
Q 1681 3103 1420 2742 
Q 1159 2381 1159 1747 
Q 1159 1113 1420 752 
Q 1681 391 2138 391 
Q 2594 391 2855 752 
Q 3116 1113 3116 1747 
z
M 1159 2969 
Q 1341 3281 1617 3432 
Q 1894 3584 2278 3584 
Q 2916 3584 3314 3078 
Q 3713 2572 3713 1747 
Q 3713 922 3314 415 
Q 2916 -91 2278 -91 
Q 1894 -91 1617 61 
Q 1341 213 1159 525 
L 1159 0 
L 581 0 
L 581 4863 
L 1159 4863 
L 1159 2969 
z
" transform="scale(0.015625)"/>
     </defs>
     <use xlink:href="#DejaVuSans-52"/>
     <use xlink:href="#DejaVuSans-65" transform="translate(64.982422 0)"/>
     <use xlink:href="#DejaVuSans-63" transform="translate(126.505859 0)"/>
     <use xlink:href="#DejaVuSans-6f" transform="translate(181.486328 0)"/>
     <use xlink:href="#DejaVuSans-72" transform="translate(242.667969 0)"/>
     <use xlink:href="#DejaVuSans-64" transform="translate(282.03125 0)"/>
     <use xlink:href="#DejaVuSans-73" transform="translate(345.507812 0)"/>
     <use xlink:href="#DejaVuSans-20" transform="translate(397.607422 0)"/>
     <use xlink:href="#DejaVuSans-69" transform="translate(429.394531 0)"/>
     <use xlink:href="#DejaVuSans-64" transform="translate(457.177734 0)"/>
     <use xlink:href="#DejaVuSans-65" transform="translate(520.654297 0)"/>
     <use xlink:href="#DejaVuSans-6e" transform="translate(582.177734 0)"/>
     <use xlink:href="#DejaVuSans-74" transform="translate(645.556641 0)"/>
     <use xlink:href="#DejaVuSans-69" transform="translate(684.765625 0)"/>
     <use xlink:href="#DejaVuSans-66" transform="translate(712.548828 0)"/>
     <use xlink:href="#DejaVuSans-69" transform="translate(747.753906 0)"/>
     <use xlink:href="#DejaVuSans-65" transform="translate(775.537109 0)"/>
     <use xlink:href="#DejaVuSans-64" transform="translate(837.060547 0)"/>
     <use xlink:href="#DejaVuSans-20" transform="translate(900.537109 0)"/>
     <use xlink:href="#DejaVuSans-66" transform="translate(932.324219 0)"/>
     <use xlink:href="#DejaVuSans-72" transform="translate(967.529297 0)"/>
     <use xlink:href="#DejaVuSans-6f" transform="translate(1006.392578 0)"/>
     <use xlink:href="#DejaVuSans-6d" transform="translate(1067.574219 0)"/>
     <use xlink:href="#DejaVuSans-20" transform="translate(1164.986328 0)"/>
     <use xlink:href="#DejaVuSans-64" transform="translate(1196.773438 0)"/>
     <use xlink:href="#DejaVuSans-61" transform="translate(1260.25 0)"/>
     <use xlink:href="#DejaVuSans-74" transform="translate(1321.529297 0)"/>
     <use xlink:href="#DejaVuSans-61" transform="translate(1360.738281 0)"/>
     <use xlink:href="#DejaVuSans-62" transform="translate(1422.017578 0)"/>
     <use xlink:href="#DejaVuSans-61" transform="translate(1485.494141 0)"/>
     <use xlink:href="#DejaVuSans-73" transform="translate(1546.773438 0)"/>
     <use xlink:href="#DejaVuSans-65" transform="translate(1598.873047 0)"/>
     <use xlink:href="#DejaVuSans-73" transform="translate(1660.396484 0)"/>
    </g>
   </g>
   <g id="text_4">
    <!-- (n = 8,247) -->
    <g style="fill: #111111" transform="translate(135.241319 136.038536) scale(0.14 -0.14)">
     <defs>
      <path id="DejaVuSans-28" d="M 1984 4856 
Q 1566 4138 1362 3434 
Q 1159 2731 1159 2009 
Q 1159 1288 1364 580 
Q 1569 -128 1984 -844 
L 1484 -844 
Q 1016 -109 783 600 
Q 550 1309 550 2009 
Q 550 2706 781 3412 
Q 1013 4119 1484 4856 
L 1984 4856 
z
" transform="scale(0.015625)"/>
      <path id="DejaVuSans-3d" d="M 678 2906 
L 4684 2906 
L 4684 2381 
L 678 2381 
L 678 2906 
z
M 678 1631 
L 4684 1631 
L 4684 1100 
L 678 1100 
L 678 1631 
z
" transform="scale(0.015625)"/>
      <path id="DejaVuSans-38" d="M 2034 2216 
Q 1584 2216 1326 1975 
Q 1069 1734 1069 1313 
Q 1069 891 1326 650 
Q 1584 409 2034 409 
Q 2484 409 2743 651 
Q 3003 894 3003 1313 
Q 3003 1734 2745 1975 
Q 2488 2216 2034 2216 
z
M 1403 2484 
Q 997 2584 770 2862 
Q 544 3141 544 3541 
Q 544 4100 942 4425 
Q 1341 4750 2034 4750 
Q 2731 4750 3128 4425 
Q 3525 4100 3525 3541 
Q 3525 3141 3298 2862 
Q 3072 2584 2669 2484 
Q 3125 2378 3379 2068 
Q 3634 1759 3634 1313 
Q 3634 634 3220 271 
Q 2806 -91 2034 -91 
Q 1263 -91 848 271 
Q 434 634 434 1313 
Q 434 1759 690 2068 
Q 947 2378 1403 2484 
z
M 1172 3481 
Q 1172 3119 1398 2916 
Q 1625 2713 2034 2713 
Q 2441 2713 2670 2916 
Q 2900 3119 2900 3481 
Q 2900 3844 2670 4047 
Q 2441 4250 2034 4250 
Q 1625 4250 1398 4047 
Q 1172 3844 1172 3481 
z
" transform="scale(0.015625)"/>
      <path id="DejaVuSans-2c" d="M 750 794 
L 1409 794 
L 1409 256 
L 897 -744 
L 494 -744 
L 750 256 
L 750 794 
z
" transform="scale(0.015625)"/>
      <path id="DejaVuSans-32" d="M 1228 531 
L 3431 531 
L 3431 0 
L 469 0 
L 469 531 
Q 828 903 1448 1529 
Q 2069 2156 2228 2338 
Q 2531 2678 2651 2914 
Q 2772 3150 2772 3378 
Q 2772 3750 2511 3984 
Q 2250 4219 1831 4219 
Q 1534 4219 1204 4116 
Q 875 4013 500 3803 
L 500 4441 
Q 881 4594 1212 4672 
Q 1544 4750 1819 4750 
Q 2544 4750 2975 4387 
Q 3406 4025 3406 3419 
Q 3406 3131 3298 2873 
Q 3191 2616 2906 2266 
Q 2828 2175 2409 1742 
Q 1991 1309 1228 531 
z
" transform="scale(0.015625)"/>
      <path id="DejaVuSans-34" d="M 2419 4116 
L 825 1625 
L 2419 1625 
L 2419 4116 
z
M 2253 4666 
L 3047 4666 
L 3047 1625 
L 3713 1625 
L 3713 1100 
L 3047 1100 
L 3047 0 
L 2419 0 
L 2419 1100 
L 313 1100 
L 313 1709 
L 2253 4666 
z
" transform="scale(0.015625)"/>
      <path id="DejaVuSans-37" d="M 525 4666 
L 3525 4666 
L 3525 4397 
L 1831 0 
L 1172 0 
L 2766 4134 
L 525 4134 
L 525 4666 
z
" transform="scale(0.015625)"/>
      <path id="DejaVuSans-29" d="M 513 4856 
L 1013 4856 
Q 1481 4119 1714 3412 
Q 1947 2706 1947 2009 
Q 1947 1309 1714 600 
Q 1481 -109 1013 -844 
L 513 -844 
Q 928 -128 1133 580 
Q 1338 1288 1338 2009 
Q 1338 2731 1133 3434 
Q 928 4138 513 4856 
z
" transform="scale(0.015625)"/>
     </defs>
     <use xlink:href="#DejaVuSans-28"/>
     <use xlink:href="#DejaVuSans-6e" transform="translate(39.013672 0)"/>
     <use xlink:href="#DejaVuSans-20" transform="translate(102.392578 0)"/>
     <use xlink:href="#DejaVuSans-3d" transform="translate(134.179688 0)"/>
     <use xlink:href="#DejaVuSans-20" transform="translate(217.96875 0)"/>
     <use xlink:href="#DejaVuSans-38" transform="translate(249.755859 0)"/>
     <use xlink:href="#DejaVuSans-2c" transform="translate(313.378906 0)"/>
     <use xlink:href="#DejaVuSans-32" transform="translate(345.166016 0)"/>
     <use xlink:href="#DejaVuSans-34" transform="translate(408.789062 0)"/>
     <use xlink:href="#DejaVuSans-37" transform="translate(472.412109 0)"/>
     <use xlink:href="#DejaVuSans-29" transform="translate(536.035156 0)"/>
    </g>
   </g>
   <g id="text_5">
    <!-- Duplicates removed -->
    <g style="fill: #111111" transform="translate(351.891116 111.834291) scale(0.13 -0.13)">
     <defs>
      <path id="DejaVuSans-44" d="M 1259 4147 
L 1259 519 
L 2022 519 
Q 2988 519 3436 956 
Q 3884 1394 3884 2338 
Q 3884 3275 3436 3711 
Q 2988 4147 2022 4147 
L 1259 4147 
z
M 628 4666 
L 1925 4666 
Q 3281 4666 3915 4102 
Q 4550 3538 4550 2338 
Q 4550 1131 3912 565 
Q 3275 0 1925 0 
L 628 0 
L 628 4666 
z
" transform="scale(0.015625)"/>
      <path id="DejaVuSans-75" d="M 544 1381 
L 544 3500 
L 1119 3500 
L 1119 1403 
Q 1119 906 1312 657 
Q 1506 409 1894 409 
Q 2359 409 2629 706 
Q 2900 1003 2900 1516 
L 2900 3500 
L 3475 3500 
L 3475 0 
L 2900 0 
L 2900 538 
Q 2691 219 2414 64 
Q 2138 -91 1772 -91 
Q 1169 -91 856 284 
Q 544 659 544 1381 
z
M 1991 3584 
L 1991 3584 
z
" transform="scale(0.015625)"/>
      <path id="DejaVuSans-70" d="M 1159 525 
L 1159 -1331 
L 581 -1331 
L 581 3500 
L 1159 3500 
L 1159 2969 
Q 1341 3281 1617 3432 
Q 1894 3584 2278 3584 
Q 2916 3584 3314 3078 
Q 3713 2572 3713 1747 
Q 3713 922 3314 415 
Q 2916 -91 2278 -91 
Q 1894 -91 1617 61 
Q 1341 213 1159 525 
z
M 3116 1747 
Q 3116 2381 2855 2742 
Q 2594 3103 2138 3103 
Q 1681 3103 1420 2742 
Q 1159 2381 1159 1747 
Q 1159 1113 1420 752 
Q 1681 391 2138 391 
Q 2594 391 2855 752 
Q 3116 1113 3116 1747 
z
" transform="scale(0.015625)"/>
      <path id="DejaVuSans-6c" d="M 603 4863 
L 1178 4863 
L 1178 0 
L 603 0 
L 603 4863 
z
" transform="scale(0.015625)"/>
      <path id="DejaVuSans-76" d="M 191 3500 
L 800 3500 
L 1894 563 
L 2988 3500 
L 3597 3500 
L 2284 0 
L 1503 0 
L 191 3500 
z
" transform="scale(0.015625)"/>
     </defs>
     <use xlink:href="#DejaVuSans-44"/>
     <use xlink:href="#DejaVuSans-75" transform="translate(77.001953 0)"/>
     <use xlink:href="#DejaVuSans-70" transform="translate(140.380859 0)"/>
     <use xlink:href="#DejaVuSans-6c" transform="translate(203.857422 0)"/>
     <use xlink:href="#DejaVuSans-69" transform="translate(231.640625 0)"/>
     <use xlink:href="#DejaVuSans-63" transform="translate(259.423828 0)"/>
     <use xlink:href="#DejaVuSans-61" transform="translate(314.404297 0)"/>
     <use xlink:href="#DejaVuSans-74" transform="translate(375.683594 0)"/>
     <use xlink:href="#DejaVuSans-65" transform="translate(414.892578 0)"/>
     <use xlink:href="#DejaVuSans-73" transform="translate(476.416016 0)"/>
     <use xlink:href="#DejaVuSans-20" transform="translate(528.515625 0)"/>
     <use xlink:href="#DejaVuSans-72" transform="translate(560.302734 0)"/>
     <use xlink:href="#DejaVuSans-65" transform="translate(599.166016 0)"/>
     <use xlink:href="#DejaVuSans-6d" transform="translate(660.689453 0)"/>
     <use xlink:href="#DejaVuSans-6f" transform="translate(758.101562 0)"/>
     <use xlink:href="#DejaVuSans-76" transform="translate(819.283203 0)"/>
     <use xlink:href="#DejaVuSans-65" transform="translate(878.462891 0)"/>
     <use xlink:href="#DejaVuSans-64" transform="translate(939.986328 0)"/>
    </g>
   </g>
   <g id="text_6">
    <!-- (n = 2,415) -->
    <g style="fill: #111111" transform="translate(379.739553 124.937888) scale(0.13 -0.13)">
     <defs>
      <path id="DejaVuSans-31" d="M 794 531 
L 1825 531 
L 1825 4091 
L 703 3866 
L 703 4441 
L 1819 4666 
L 2450 4666 
L 2450 531 
L 3481 531 
L 3481 0 
L 794 0 
L 794 531 
z
" transform="scale(0.015625)"/>
      <path id="DejaVuSans-35" d="M 691 4666 
L 3169 4666 
L 3169 4134 
L 1269 4134 
L 1269 2991 
Q 1406 3038 1543 3061 
Q 1681 3084 1819 3084 
Q 2600 3084 3056 2656 
Q 3513 2228 3513 1497 
Q 3513 744 3044 326 
Q 2575 -91 1722 -91 
Q 1428 -91 1123 -41 
Q 819 9 494 109 
L 494 744 
Q 775 591 1075 516 
Q 1375 441 1709 441 
Q 2250 441 2565 725 
Q 2881 1009 2881 1497 
Q 2881 1984 2565 2268 
Q 2250 2553 1709 2553 
Q 1456 2553 1204 2497 
Q 953 2441 691 2322 
L 691 4666 
z
" transform="scale(0.015625)"/>
     </defs>
     <use xlink:href="#DejaVuSans-28"/>
     <use xlink:href="#DejaVuSans-6e" transform="translate(39.013672 0)"/>
     <use xlink:href="#DejaVuSans-20" transform="translate(102.392578 0)"/>
     <use xlink:href="#DejaVuSans-3d" transform="translate(134.179688 0)"/>
     <use xlink:href="#DejaVuSans-20" transform="translate(217.96875 0)"/>
     <use xlink:href="#DejaVuSans-32" transform="translate(249.755859 0)"/>
     <use xlink:href="#DejaVuSans-2c" transform="translate(313.378906 0)"/>
     <use xlink:href="#DejaVuSans-34" transform="translate(345.166016 0)"/>
     <use xlink:href="#DejaVuSans-31" transform="translate(408.789062 0)"/>
     <use xlink:href="#DejaVuSans-35" transform="translate(472.412109 0)"/>
     <use xlink:href="#DejaVuSans-29" transform="translate(536.035156 0)"/>
    </g>
   </g>
   <g id="text_7">
    <!-- SCREENING -->
    <g style="fill: #111111" transform="translate(117.382725 251.593025) scale(0.18 -0.18)">
     <defs>
      <path id="DejaVuSans-Bold-47" d="M 4781 347 
Q 4331 128 3847 18 
Q 3363 -91 2847 -91 
Q 1681 -91 1000 561 
Q 319 1213 319 2328 
Q 319 3456 1012 4103 
Q 1706 4750 2913 4750 
Q 3378 4750 3804 4662 
Q 4231 4575 4609 4403 
L 4609 3438 
Q 4219 3659 3833 3768 
Q 3447 3878 3059 3878 
Q 2341 3878 1952 3476 
Q 1563 3075 1563 2328 
Q 1563 1588 1938 1184 
Q 2313 781 3003 781 
Q 3191 781 3352 804 
Q 3513 828 3641 878 
L 3641 1784 
L 2906 1784 
L 2906 2591 
L 4781 2591 
L 4781 347 
z
" transform="scale(0.015625)"/>
     </defs>
     <use xlink:href="#DejaVuSans-Bold-53"/>
     <use xlink:href="#DejaVuSans-Bold-43" transform="translate(72.021484 0)"/>
     <use xlink:href="#DejaVuSans-Bold-52" transform="translate(145.410156 0)"/>
     <use xlink:href="#DejaVuSans-Bold-45" transform="translate(222.412109 0)"/>
     <use xlink:href="#DejaVuSans-Bold-45" transform="translate(290.722656 0)"/>
     <use xlink:href="#DejaVuSans-Bold-4e" transform="translate(359.033203 0)"/>
     <use xlink:href="#DejaVuSans-Bold-49" transform="translate(442.724609 0)"/>
     <use xlink:href="#DejaVuSans-Bold-4e" transform="translate(479.931641 0)"/>
     <use xlink:href="#DejaVuSans-Bold-47" transform="translate(563.623047 0)"/>
    </g>
   </g>
   <g id="text_8">
    <!-- Records screened -->
    <g style="fill: #111111" transform="translate(113.418819 267.960738) scale(0.14 -0.14)">
     <use xlink:href="#DejaVuSans-52"/>
     <use xlink:href="#DejaVuSans-65" transform="translate(64.982422 0)"/>
     <use xlink:href="#DejaVuSans-63" transform="translate(126.505859 0)"/>
     <use xlink:href="#DejaVuSans-6f" transform="translate(181.486328 0)"/>
     <use xlink:href="#DejaVuSans-72" transform="translate(242.667969 0)"/>
     <use xlink:href="#DejaVuSans-64" transform="translate(282.03125 0)"/>
     <use xlink:href="#DejaVuSans-73" transform="translate(345.507812 0)"/>
     <use xlink:href="#DejaVuSans-20" transform="translate(397.607422 0)"/>
     <use xlink:href="#DejaVuSans-73" transform="translate(429.394531 0)"/>
     <use xlink:href="#DejaVuSans-63" transform="translate(481.494141 0)"/>
     <use xlink:href="#DejaVuSans-72" transform="translate(536.474609 0)"/>
     <use xlink:href="#DejaVuSans-65" transform="translate(575.337891 0)"/>
     <use xlink:href="#DejaVuSans-65" transform="translate(636.861328 0)"/>
     <use xlink:href="#DejaVuSans-6e" transform="translate(698.384766 0)"/>
     <use xlink:href="#DejaVuSans-65" transform="translate(761.763672 0)"/>
     <use xlink:href="#DejaVuSans-64" transform="translate(823.287109 0)"/>
    </g>
   </g>
   <g id="text_9">
    <!-- (n = 5,832) -->
    <g style="fill: #111111" transform="translate(135.241319 281.634056) scale(0.14 -0.14)">
     <defs>
      <path id="DejaVuSans-33" d="M 2597 2516 
Q 3050 2419 3304 2112 
Q 3559 1806 3559 1356 
Q 3559 666 3084 287 
Q 2609 -91 1734 -91 
Q 1441 -91 1130 -33 
Q 819 25 488 141 
L 488 750 
Q 750 597 1062 519 
Q 1375 441 1716 441 
Q 2309 441 2620 675 
Q 2931 909 2931 1356 
Q 2931 1769 2642 2001 
Q 2353 2234 1838 2234 
L 1294 2234 
L 1294 2753 
L 1863 2753 
Q 2328 2753 2575 2939 
Q 2822 3125 2822 3475 
Q 2822 3834 2567 4026 
Q 2313 4219 1838 4219 
Q 1578 4219 1281 4162 
Q 984 4106 628 3988 
L 628 4550 
Q 988 4650 1302 4700 
Q 1616 4750 1894 4750 
Q 2613 4750 3031 4423 
Q 3450 4097 3450 3541 
Q 3450 3153 3228 2886 
Q 3006 2619 2597 2516 
z
" transform="scale(0.015625)"/>
     </defs>
     <use xlink:href="#DejaVuSans-28"/>
     <use xlink:href="#DejaVuSans-6e" transform="translate(39.013672 0)"/>
     <use xlink:href="#DejaVuSans-20" transform="translate(102.392578 0)"/>
     <use xlink:href="#DejaVuSans-3d" transform="translate(134.179688 0)"/>
     <use xlink:href="#DejaVuSans-20" transform="translate(217.96875 0)"/>
     <use xlink:href="#DejaVuSans-35" transform="translate(249.755859 0)"/>
     <use xlink:href="#DejaVuSans-2c" transform="translate(313.378906 0)"/>
     <use xlink:href="#DejaVuSans-38" transform="translate(345.166016 0)"/>
     <use xlink:href="#DejaVuSans-33" transform="translate(408.789062 0)"/>
     <use xlink:href="#DejaVuSans-32" transform="translate(472.412109 0)"/>
     <use xlink:href="#DejaVuSans-29" transform="translate(536.035156 0)"/>
    </g>
   </g>
   <g id="text_10">
    <!-- Records excluded -->
    <g style="fill: #111111" transform="translate(359.835334 257.429811) scale(0.13 -0.13)">
     <defs>
      <path id="DejaVuSans-78" d="M 3513 3500 
L 2247 1797 
L 3578 0 
L 2900 0 
L 1881 1375 
L 863 0 
L 184 0 
L 1544 1831 
L 300 3500 
L 978 3500 
L 1906 2253 
L 2834 3500 
L 3513 3500 
z
" transform="scale(0.015625)"/>
     </defs>
     <use xlink:href="#DejaVuSans-52"/>
     <use xlink:href="#DejaVuSans-65" transform="translate(64.982422 0)"/>
     <use xlink:href="#DejaVuSans-63" transform="translate(126.505859 0)"/>
     <use xlink:href="#DejaVuSans-6f" transform="translate(181.486328 0)"/>
     <use xlink:href="#DejaVuSans-72" transform="translate(242.667969 0)"/>
     <use xlink:href="#DejaVuSans-64" transform="translate(282.03125 0)"/>
     <use xlink:href="#DejaVuSans-73" transform="translate(345.507812 0)"/>
     <use xlink:href="#DejaVuSans-20" transform="translate(397.607422 0)"/>
     <use xlink:href="#DejaVuSans-65" transform="translate(429.394531 0)"/>
     <use xlink:href="#DejaVuSans-78" transform="translate(489.167969 0)"/>
     <use xlink:href="#DejaVuSans-63" transform="translate(546.597656 0)"/>
     <use xlink:href="#DejaVuSans-6c" transform="translate(601.578125 0)"/>
     <use xlink:href="#DejaVuSans-75" transform="translate(629.361328 0)"/>
     <use xlink:href="#DejaVuSans-64" transform="translate(692.740234 0)"/>
     <use xlink:href="#DejaVuSans-65" transform="translate(756.216797 0)"/>
     <use xlink:href="#DejaVuSans-64" transform="translate(817.740234 0)"/>
    </g>
   </g>
   <g id="text_11">
    <!-- (n = 5,520) -->
    <g style="fill: #111111" transform="translate(379.739553 270.533408) scale(0.13 -0.13)">
     <defs>
      <path id="DejaVuSans-30" d="M 2034 4250 
Q 1547 4250 1301 3770 
Q 1056 3291 1056 2328 
Q 1056 1369 1301 889 
Q 1547 409 2034 409 
Q 2525 409 2770 889 
Q 3016 1369 3016 2328 
Q 3016 3291 2770 3770 
Q 2525 4250 2034 4250 
z
M 2034 4750 
Q 2819 4750 3233 4129 
Q 3647 3509 3647 2328 
Q 3647 1150 3233 529 
Q 2819 -91 2034 -91 
Q 1250 -91 836 529 
Q 422 1150 422 2328 
Q 422 3509 836 4129 
Q 1250 4750 2034 4750 
z
" transform="scale(0.015625)"/>
     </defs>
     <use xlink:href="#DejaVuSans-28"/>
     <use xlink:href="#DejaVuSans-6e" transform="translate(39.013672 0)"/>
     <use xlink:href="#DejaVuSans-20" transform="translate(102.392578 0)"/>
     <use xlink:href="#DejaVuSans-3d" transform="translate(134.179688 0)"/>
     <use xlink:href="#DejaVuSans-20" transform="translate(217.96875 0)"/>
     <use xlink:href="#DejaVuSans-35" transform="translate(249.755859 0)"/>
     <use xlink:href="#DejaVuSans-2c" transform="translate(313.378906 0)"/>
     <use xlink:href="#DejaVuSans-35" transform="translate(345.166016 0)"/>
     <use xlink:href="#DejaVuSans-32" transform="translate(408.789062 0)"/>
     <use xlink:href="#DejaVuSans-30" transform="translate(472.412109 0)"/>
     <use xlink:href="#DejaVuSans-29" transform="translate(536.035156 0)"/>
    </g>
   </g>
   <g id="text_12">
    <!-- ELIGIBILITY -->
    <g style="fill: #111111" transform="translate(117.581006 397.188545) scale(0.18 -0.18)">
     <defs>
      <path id="DejaVuSans-Bold-4c" d="M 588 4666 
L 1791 4666 
L 1791 909 
L 3903 909 
L 3903 0 
L 588 0 
L 588 4666 
z
" transform="scale(0.015625)"/>
      <path id="DejaVuSans-Bold-42" d="M 2456 2859 
Q 2741 2859 2887 2984 
Q 3034 3109 3034 3353 
Q 3034 3594 2887 3720 
Q 2741 3847 2456 3847 
L 1791 3847 
L 1791 2859 
L 2456 2859 
z
M 2497 819 
Q 2859 819 3042 972 
Q 3225 1125 3225 1434 
Q 3225 1738 3044 1889 
Q 2863 2041 2497 2041 
L 1791 2041 
L 1791 819 
L 2497 819 
z
M 3616 2497 
Q 4003 2384 4215 2081 
Q 4428 1778 4428 1338 
Q 4428 663 3972 331 
Q 3516 0 2584 0 
L 588 0 
L 588 4666 
L 2394 4666 
Q 3366 4666 3802 4372 
Q 4238 4078 4238 3431 
Q 4238 3091 4078 2852 
Q 3919 2613 3616 2497 
z
" transform="scale(0.015625)"/>
      <path id="DejaVuSans-Bold-59" d="M -63 4666 
L 1253 4666 
L 2316 3003 
L 3378 4666 
L 4697 4666 
L 2919 1966 
L 2919 0 
L 1716 0 
L 1716 1966 
L -63 4666 
z
" transform="scale(0.015625)"/>
     </defs>
     <use xlink:href="#DejaVuSans-Bold-45"/>
     <use xlink:href="#DejaVuSans-Bold-4c" transform="translate(68.310547 0)"/>
     <use xlink:href="#DejaVuSans-Bold-49" transform="translate(132.03125 0)"/>
     <use xlink:href="#DejaVuSans-Bold-47" transform="translate(169.238281 0)"/>
     <use xlink:href="#DejaVuSans-Bold-49" transform="translate(251.318359 0)"/>
     <use xlink:href="#DejaVuSans-Bold-42" transform="translate(288.525391 0)"/>
     <use xlink:href="#DejaVuSans-Bold-49" transform="translate(364.746094 0)"/>
     <use xlink:href="#DejaVuSans-Bold-4c" transform="translate(401.953125 0)"/>
     <use xlink:href="#DejaVuSans-Bold-49" transform="translate(465.673828 0)"/>
     <use xlink:href="#DejaVuSans-Bold-54" transform="translate(502.880859 0)"/>
     <use xlink:href="#DejaVuSans-Bold-59" transform="translate(571.09375 0)"/>
    </g>
   </g>
   <g id="text_13">
    <!-- Reports assessed for eligibility -->
    <g style="fill: #111111" transform="translate(68.659288 413.556258) scale(0.14 -0.14)">
     <defs>
      <path id="DejaVuSans-67" d="M 2906 1791 
Q 2906 2416 2648 2759 
Q 2391 3103 1925 3103 
Q 1463 3103 1205 2759 
Q 947 2416 947 1791 
Q 947 1169 1205 825 
Q 1463 481 1925 481 
Q 2391 481 2648 825 
Q 2906 1169 2906 1791 
z
M 3481 434 
Q 3481 -459 3084 -895 
Q 2688 -1331 1869 -1331 
Q 1566 -1331 1297 -1286 
Q 1028 -1241 775 -1147 
L 775 -588 
Q 1028 -725 1275 -790 
Q 1522 -856 1778 -856 
Q 2344 -856 2625 -561 
Q 2906 -266 2906 331 
L 2906 616 
Q 2728 306 2450 153 
Q 2172 0 1784 0 
Q 1141 0 747 490 
Q 353 981 353 1791 
Q 353 2603 747 3093 
Q 1141 3584 1784 3584 
Q 2172 3584 2450 3431 
Q 2728 3278 2906 2969 
L 2906 3500 
L 3481 3500 
L 3481 434 
z
" transform="scale(0.015625)"/>
      <path id="DejaVuSans-79" d="M 2059 -325 
Q 1816 -950 1584 -1140 
Q 1353 -1331 966 -1331 
L 506 -1331 
L 506 -850 
L 844 -850 
Q 1081 -850 1212 -737 
Q 1344 -625 1503 -206 
L 1606 56 
L 191 3500 
L 800 3500 
L 1894 763 
L 2988 3500 
L 3597 3500 
L 2059 -325 
z
" transform="scale(0.015625)"/>
     </defs>
     <use xlink:href="#DejaVuSans-52"/>
     <use xlink:href="#DejaVuSans-65" transform="translate(64.982422 0)"/>
     <use xlink:href="#DejaVuSans-70" transform="translate(126.505859 0)"/>
     <use xlink:href="#DejaVuSans-6f" transform="translate(189.982422 0)"/>
     <use xlink:href="#DejaVuSans-72" transform="translate(251.164062 0)"/>
     <use xlink:href="#DejaVuSans-74" transform="translate(292.277344 0)"/>
     <use xlink:href="#DejaVuSans-73" transform="translate(331.486328 0)"/>
     <use xlink:href="#DejaVuSans-20" transform="translate(383.585938 0)"/>
     <use xlink:href="#DejaVuSans-61" transform="translate(415.373047 0)"/>
     <use xlink:href="#DejaVuSans-73" transform="translate(476.652344 0)"/>
     <use xlink:href="#DejaVuSans-73" transform="translate(528.751953 0)"/>
     <use xlink:href="#DejaVuSans-65" transform="translate(580.851562 0)"/>
     <use xlink:href="#DejaVuSans-73" transform="translate(642.375 0)"/>
     <use xlink:href="#DejaVuSans-73" transform="translate(694.474609 0)"/>
     <use xlink:href="#DejaVuSans-65" transform="translate(746.574219 0)"/>
     <use xlink:href="#DejaVuSans-64" transform="translate(808.097656 0)"/>
     <use xlink:href="#DejaVuSans-20" transform="translate(871.574219 0)"/>
     <use xlink:href="#DejaVuSans-66" transform="translate(903.361328 0)"/>
     <use xlink:href="#DejaVuSans-6f" transform="translate(938.566406 0)"/>
     <use xlink:href="#DejaVuSans-72" transform="translate(999.748047 0)"/>
     <use xlink:href="#DejaVuSans-20" transform="translate(1040.861328 0)"/>
     <use xlink:href="#DejaVuSans-65" transform="translate(1072.648438 0)"/>
     <use xlink:href="#DejaVuSans-6c" transform="translate(1134.171875 0)"/>
     <use xlink:href="#DejaVuSans-69" transform="translate(1161.955078 0)"/>
     <use xlink:href="#DejaVuSans-67" transform="translate(1189.738281 0)"/>
     <use xlink:href="#DejaVuSans-69" transform="translate(1253.214844 0)"/>
     <use xlink:href="#DejaVuSans-62" transform="translate(1280.998047 0)"/>
     <use xlink:href="#DejaVuSans-69" transform="translate(1344.474609 0)"/>
     <use xlink:href="#DejaVuSans-6c" transform="translate(1372.257812 0)"/>
     <use xlink:href="#DejaVuSans-69" transform="translate(1400.041016 0)"/>
     <use xlink:href="#DejaVuSans-74" transform="translate(1427.824219 0)"/>
     <use xlink:href="#DejaVuSans-79" transform="translate(1467.033203 0)"/>
    </g>
   </g>
   <g id="text_14">
    <!-- (n = 312) -->
    <g style="fill: #111111" transform="translate(141.919756 427.229576) scale(0.14 -0.14)">
     <use xlink:href="#DejaVuSans-28"/>
     <use xlink:href="#DejaVuSans-6e" transform="translate(39.013672 0)"/>
     <use xlink:href="#DejaVuSans-20" transform="translate(102.392578 0)"/>
     <use xlink:href="#DejaVuSans-3d" transform="translate(134.179688 0)"/>
     <use xlink:href="#DejaVuSans-20" transform="translate(217.96875 0)"/>
     <use xlink:href="#DejaVuSans-33" transform="translate(249.755859 0)"/>
     <use xlink:href="#DejaVuSans-31" transform="translate(313.378906 0)"/>
     <use xlink:href="#DejaVuSans-32" transform="translate(377.001953 0)"/>
     <use xlink:href="#DejaVuSans-29" transform="translate(440.625 0)"/>
    </g>
   </g>
   <g id="text_15">
    <g clip-path="url(#p163fba0061)">
     <!-- Reports excluded -->
     <g style="fill: #111111" transform="translate(353.02392 367.15607) scale(0.1 -0.1)">
      <use xlink:href="#DejaVuSans-52"/>
      <use xlink:href="#DejaVuSans-65" transform="translate(64.982422 0)"/>
      <use xlink:href="#DejaVuSans-70" transform="translate(126.505859 0)"/>
      <use xlink:href="#DejaVuSans-6f" transform="translate(189.982422 0)"/>
      <use xlink:href="#DejaVuSans-72" transform="translate(251.164062 0)"/>
      <use xlink:href="#DejaVuSans-74" transform="translate(292.277344 0)"/>
      <use xlink:href="#DejaVuSans-73" transform="translate(331.486328 0)"/>
      <use xlink:href="#DejaVuSans-20" transform="translate(383.585938 0)"/>
      <use xlink:href="#DejaVuSans-65" transform="translate(415.373047 0)"/>
      <use xlink:href="#DejaVuSans-78" transform="translate(475.146484 0)"/>
      <use xlink:href="#DejaVuSans-63" transform="translate(532.576172 0)"/>
      <use xlink:href="#DejaVuSans-6c" transform="translate(587.556641 0)"/>
      <use xlink:href="#DejaVuSans-75" transform="translate(615.339844 0)"/>
      <use xlink:href="#DejaVuSans-64" transform="translate(678.71875 0)"/>
      <use xlink:href="#DejaVuSans-65" transform="translate(742.195312 0)"/>
      <use xlink:href="#DejaVuSans-64" transform="translate(803.71875 0)"/>
     </g>
    </g>
    <g clip-path="url(#p24a1922856)">
     <!-- (n = 259): -->
     <g style="fill: #111111" transform="translate(353.02392 377.97396) scale(0.1 -0.1)">
      <defs>
       <path id="DejaVuSans-39" d="M 703 97 
L 703 672 
Q 941 559 1184 500 
Q 1428 441 1663 441 
Q 2288 441 2617 861 
Q 2947 1281 2994 2138 
Q 2813 1869 2534 1725 
Q 2256 1581 1919 1581 
Q 1219 1581 811 2004 
Q 403 2428 403 3163 
Q 403 3881 828 4315 
Q 1253 4750 1959 4750 
Q 2769 4750 3195 4129 
Q 3622 3509 3622 2328 
Q 3622 1225 3098 567 
Q 2575 -91 1691 -91 
Q 1453 -91 1209 -44 
Q 966 3 703 97 
z
M 1959 2075 
Q 2384 2075 2632 2365 
Q 2881 2656 2881 3163 
Q 2881 3666 2632 3958 
Q 2384 4250 1959 4250 
Q 1534 4250 1286 3958 
Q 1038 3666 1038 3163 
Q 1038 2656 1286 2365 
Q 1534 2075 1959 2075 
z
" transform="scale(0.015625)"/>
       <path id="DejaVuSans-3a" d="M 750 794 
L 1409 794 
L 1409 0 
L 750 0 
L 750 794 
z
M 750 3309 
L 1409 3309 
L 1409 2516 
L 750 2516 
L 750 3309 
z
" transform="scale(0.015625)"/>
      </defs>
      <use xlink:href="#DejaVuSans-28"/>
      <use xlink:href="#DejaVuSans-6e" transform="translate(39.013672 0)"/>
      <use xlink:href="#DejaVuSans-20" transform="translate(102.392578 0)"/>
      <use xlink:href="#DejaVuSans-3d" transform="translate(134.179688 0)"/>
      <use xlink:href="#DejaVuSans-20" transform="translate(217.96875 0)"/>
      <use xlink:href="#DejaVuSans-32" transform="translate(249.755859 0)"/>
      <use xlink:href="#DejaVuSans-35" transform="translate(313.378906 0)"/>
      <use xlink:href="#DejaVuSans-39" transform="translate(377.001953 0)"/>
      <use xlink:href="#DejaVuSans-29" transform="translate(440.625 0)"/>
      <use xlink:href="#DejaVuSans-3a" transform="translate(479.638672 0)"/>
     </g>
    </g>
    <g clip-path="url(#p905683ccb6)">
     <!-- - Non-clinical food -->
     <g style="fill: #111111" transform="translate(353.02392 388.791851) scale(0.1 -0.1)">
      <defs>
       <path id="DejaVuSans-2d" d="M 313 2009 
L 1997 2009 
L 1997 1497 
L 313 1497 
L 313 2009 
z
" transform="scale(0.015625)"/>
       <path id="DejaVuSans-4e" d="M 628 4666 
L 1478 4666 
L 3547 763 
L 3547 4666 
L 4159 4666 
L 4159 0 
L 3309 0 
L 1241 3903 
L 1241 0 
L 628 0 
L 628 4666 
z
" transform="scale(0.015625)"/>
      </defs>
      <use xlink:href="#DejaVuSans-2d"/>
      <use xlink:href="#DejaVuSans-20" transform="translate(36.083984 0)"/>
      <use xlink:href="#DejaVuSans-4e" transform="translate(67.871094 0)"/>
      <use xlink:href="#DejaVuSans-6f" transform="translate(142.675781 0)"/>
      <use xlink:href="#DejaVuSans-6e" transform="translate(203.857422 0)"/>
      <use xlink:href="#DejaVuSans-2d" transform="translate(267.236328 0)"/>
      <use xlink:href="#DejaVuSans-63" transform="translate(303.320312 0)"/>
      <use xlink:href="#DejaVuSans-6c" transform="translate(358.300781 0)"/>
      <use xlink:href="#DejaVuSans-69" transform="translate(386.083984 0)"/>
      <use xlink:href="#DejaVuSans-6e" transform="translate(413.867188 0)"/>
      <use xlink:href="#DejaVuSans-69" transform="translate(477.246094 0)"/>
      <use xlink:href="#DejaVuSans-63" transform="translate(505.029297 0)"/>
      <use xlink:href="#DejaVuSans-61" transform="translate(560.009766 0)"/>
      <use xlink:href="#DejaVuSans-6c" transform="translate(621.289062 0)"/>
      <use xlink:href="#DejaVuSans-20" transform="translate(649.072266 0)"/>
      <use xlink:href="#DejaVuSans-66" transform="translate(680.859375 0)"/>
      <use xlink:href="#DejaVuSans-6f" transform="translate(716.064453 0)"/>
      <use xlink:href="#DejaVuSans-6f" transform="translate(777.246094 0)"/>
      <use xlink:href="#DejaVuSans-64" transform="translate(838.427734 0)"/>
     </g>
    </g>
    <g clip-path="url(#p0c6d6c6b5a)">
     <!--   science focus -->
     <g style="fill: #111111" transform="translate(353.02392 399.609741) scale(0.1 -0.1)">
      <use xlink:href="#DejaVuSans-20"/>
      <use xlink:href="#DejaVuSans-20" transform="translate(31.787109 0)"/>
      <use xlink:href="#DejaVuSans-73" transform="translate(63.574219 0)"/>
      <use xlink:href="#DejaVuSans-63" transform="translate(115.673828 0)"/>
      <use xlink:href="#DejaVuSans-69" transform="translate(170.654297 0)"/>
      <use xlink:href="#DejaVuSans-65" transform="translate(198.4375 0)"/>
      <use xlink:href="#DejaVuSans-6e" transform="translate(259.960938 0)"/>
      <use xlink:href="#DejaVuSans-63" transform="translate(323.339844 0)"/>
      <use xlink:href="#DejaVuSans-65" transform="translate(378.320312 0)"/>
      <use xlink:href="#DejaVuSans-20" transform="translate(439.84375 0)"/>
      <use xlink:href="#DejaVuSans-66" transform="translate(471.630859 0)"/>
      <use xlink:href="#DejaVuSans-6f" transform="translate(506.835938 0)"/>
      <use xlink:href="#DejaVuSans-63" transform="translate(568.017578 0)"/>
      <use xlink:href="#DejaVuSans-75" transform="translate(622.998047 0)"/>
      <use xlink:href="#DejaVuSans-73" transform="translate(686.376953 0)"/>
     </g>
    </g>
    <g clip-path="url(#p0b6f67bc16)">
     <!-- - No quantitative outcomes -->
     <g style="fill: #111111" transform="translate(353.02392 410.427632) scale(0.1 -0.1)">
      <defs>
       <path id="DejaVuSans-71" d="M 947 1747 
Q 947 1113 1208 752 
Q 1469 391 1925 391 
Q 2381 391 2643 752 
Q 2906 1113 2906 1747 
Q 2906 2381 2643 2742 
Q 2381 3103 1925 3103 
Q 1469 3103 1208 2742 
Q 947 2381 947 1747 
z
M 2906 525 
Q 2725 213 2448 61 
Q 2172 -91 1784 -91 
Q 1150 -91 751 415 
Q 353 922 353 1747 
Q 353 2572 751 3078 
Q 1150 3584 1784 3584 
Q 2172 3584 2448 3432 
Q 2725 3281 2906 2969 
L 2906 3500 
L 3481 3500 
L 3481 -1331 
L 2906 -1331 
L 2906 525 
z
" transform="scale(0.015625)"/>
      </defs>
      <use xlink:href="#DejaVuSans-2d"/>
      <use xlink:href="#DejaVuSans-20" transform="translate(36.083984 0)"/>
      <use xlink:href="#DejaVuSans-4e" transform="translate(67.871094 0)"/>
      <use xlink:href="#DejaVuSans-6f" transform="translate(142.675781 0)"/>
      <use xlink:href="#DejaVuSans-20" transform="translate(203.857422 0)"/>
      <use xlink:href="#DejaVuSans-71" transform="translate(235.644531 0)"/>
      <use xlink:href="#DejaVuSans-75" transform="translate(299.121094 0)"/>
      <use xlink:href="#DejaVuSans-61" transform="translate(362.5 0)"/>
      <use xlink:href="#DejaVuSans-6e" transform="translate(423.779297 0)"/>
      <use xlink:href="#DejaVuSans-74" transform="translate(487.158203 0)"/>
      <use xlink:href="#DejaVuSans-69" transform="translate(526.367188 0)"/>
      <use xlink:href="#DejaVuSans-74" transform="translate(554.150391 0)"/>
      <use xlink:href="#DejaVuSans-61" transform="translate(593.359375 0)"/>
      <use xlink:href="#DejaVuSans-74" transform="translate(654.638672 0)"/>
      <use xlink:href="#DejaVuSans-69" transform="translate(693.847656 0)"/>
      <use xlink:href="#DejaVuSans-76" transform="translate(721.630859 0)"/>
      <use xlink:href="#DejaVuSans-65" transform="translate(780.810547 0)"/>
      <use xlink:href="#DejaVuSans-20" transform="translate(842.333984 0)"/>
      <use xlink:href="#DejaVuSans-6f" transform="translate(874.121094 0)"/>
      <use xlink:href="#DejaVuSans-75" transform="translate(935.302734 0)"/>
      <use xlink:href="#DejaVuSans-74" transform="translate(998.681641 0)"/>
      <use xlink:href="#DejaVuSans-63" transform="translate(1037.890625 0)"/>
      <use xlink:href="#DejaVuSans-6f" transform="translate(1092.871094 0)"/>
      <use xlink:href="#DejaVuSans-6d" transform="translate(1154.052734 0)"/>
      <use xlink:href="#DejaVuSans-65" transform="translate(1251.464844 0)"/>
      <use xlink:href="#DejaVuSans-73" transform="translate(1312.988281 0)"/>
     </g>
    </g>
    <g clip-path="url(#pb9df12fa51)">
     <!-- - Non-English publication -->
     <g style="fill: #111111" transform="translate(353.02392 421.245523) scale(0.1 -0.1)">
      <defs>
       <path id="DejaVuSans-45" d="M 628 4666 
L 3578 4666 
L 3578 4134 
L 1259 4134 
L 1259 2753 
L 3481 2753 
L 3481 2222 
L 1259 2222 
L 1259 531 
L 3634 531 
L 3634 0 
L 628 0 
L 628 4666 
z
" transform="scale(0.015625)"/>
       <path id="DejaVuSans-68" d="M 3513 2113 
L 3513 0 
L 2938 0 
L 2938 2094 
Q 2938 2591 2744 2837 
Q 2550 3084 2163 3084 
Q 1697 3084 1428 2787 
Q 1159 2491 1159 1978 
L 1159 0 
L 581 0 
L 581 4863 
L 1159 4863 
L 1159 2956 
Q 1366 3272 1645 3428 
Q 1925 3584 2291 3584 
Q 2894 3584 3203 3211 
Q 3513 2838 3513 2113 
z
" transform="scale(0.015625)"/>
      </defs>
      <use xlink:href="#DejaVuSans-2d"/>
      <use xlink:href="#DejaVuSans-20" transform="translate(36.083984 0)"/>
      <use xlink:href="#DejaVuSans-4e" transform="translate(67.871094 0)"/>
      <use xlink:href="#DejaVuSans-6f" transform="translate(142.675781 0)"/>
      <use xlink:href="#DejaVuSans-6e" transform="translate(203.857422 0)"/>
      <use xlink:href="#DejaVuSans-2d" transform="translate(267.236328 0)"/>
      <use xlink:href="#DejaVuSans-45" transform="translate(303.320312 0)"/>
      <use xlink:href="#DejaVuSans-6e" transform="translate(366.503906 0)"/>
      <use xlink:href="#DejaVuSans-67" transform="translate(429.882812 0)"/>
      <use xlink:href="#DejaVuSans-6c" transform="translate(493.359375 0)"/>
      <use xlink:href="#DejaVuSans-69" transform="translate(521.142578 0)"/>
      <use xlink:href="#DejaVuSans-73" transform="translate(548.925781 0)"/>
      <use xlink:href="#DejaVuSans-68" transform="translate(601.025391 0)"/>
      <use xlink:href="#DejaVuSans-20" transform="translate(664.404297 0)"/>
      <use xlink:href="#DejaVuSans-70" transform="translate(696.191406 0)"/>
      <use xlink:href="#DejaVuSans-75" transform="translate(759.667969 0)"/>
      <use xlink:href="#DejaVuSans-62" transform="translate(823.046875 0)"/>
      <use xlink:href="#DejaVuSans-6c" transform="translate(886.523438 0)"/>
      <use xlink:href="#DejaVuSans-69" transform="translate(914.306641 0)"/>
      <use xlink:href="#DejaVuSans-63" transform="translate(942.089844 0)"/>
      <use xlink:href="#DejaVuSans-61" transform="translate(997.070312 0)"/>
      <use xlink:href="#DejaVuSans-74" transform="translate(1058.349609 0)"/>
      <use xlink:href="#DejaVuSans-69" transform="translate(1097.558594 0)"/>
      <use xlink:href="#DejaVuSans-6f" transform="translate(1125.341797 0)"/>
      <use xlink:href="#DejaVuSans-6e" transform="translate(1186.523438 0)"/>
     </g>
    </g>
   </g>
   <g id="text_16">
    <!-- INCLUDED -->
    <g style="fill: #111111" transform="translate(124.201631 526.338102) scale(0.18 -0.18)">
     <defs>
      <path id="DejaVuSans-Bold-55" d="M 588 4666 
L 1791 4666 
L 1791 1869 
Q 1791 1291 1980 1042 
Q 2169 794 2597 794 
Q 3028 794 3217 1042 
Q 3406 1291 3406 1869 
L 3406 4666 
L 4609 4666 
L 4609 1869 
Q 4609 878 4112 393 
Q 3616 -91 2597 -91 
Q 1581 -91 1084 393 
Q 588 878 588 1869 
L 588 4666 
z
" transform="scale(0.015625)"/>
     </defs>
     <use xlink:href="#DejaVuSans-Bold-49"/>
     <use xlink:href="#DejaVuSans-Bold-4e" transform="translate(37.207031 0)"/>
     <use xlink:href="#DejaVuSans-Bold-43" transform="translate(120.898438 0)"/>
     <use xlink:href="#DejaVuSans-Bold-4c" transform="translate(194.287109 0)"/>
     <use xlink:href="#DejaVuSans-Bold-55" transform="translate(254.382812 0)"/>
     <use xlink:href="#DejaVuSans-Bold-44" transform="translate(335.583984 0)"/>
     <use xlink:href="#DejaVuSans-Bold-45" transform="translate(418.591797 0)"/>
     <use xlink:href="#DejaVuSans-Bold-44" transform="translate(486.902344 0)"/>
    </g>
   </g>
   <g id="text_17">
    <!-- Studies included in review -->
    <g style="fill: #111111" transform="translate(83.520069 541.832241) scale(0.14 -0.14)">
     <defs>
      <path id="DejaVuSans-53" d="M 3425 4513 
L 3425 3897 
Q 3066 4069 2747 4153 
Q 2428 4238 2131 4238 
Q 1616 4238 1336 4038 
Q 1056 3838 1056 3469 
Q 1056 3159 1242 3001 
Q 1428 2844 1947 2747 
L 2328 2669 
Q 3034 2534 3370 2195 
Q 3706 1856 3706 1288 
Q 3706 609 3251 259 
Q 2797 -91 1919 -91 
Q 1588 -91 1214 -16 
Q 841 59 441 206 
L 441 856 
Q 825 641 1194 531 
Q 1563 422 1919 422 
Q 2459 422 2753 634 
Q 3047 847 3047 1241 
Q 3047 1584 2836 1778 
Q 2625 1972 2144 2069 
L 1759 2144 
Q 1053 2284 737 2584 
Q 422 2884 422 3419 
Q 422 4038 858 4394 
Q 1294 4750 2059 4750 
Q 2388 4750 2728 4690 
Q 3069 4631 3425 4513 
z
" transform="scale(0.015625)"/>
      <path id="DejaVuSans-77" d="M 269 3500 
L 844 3500 
L 1563 769 
L 2278 3500 
L 2956 3500 
L 3675 769 
L 4391 3500 
L 4966 3500 
L 4050 0 
L 3372 0 
L 2619 2869 
L 1863 0 
L 1184 0 
L 269 3500 
z
" transform="scale(0.015625)"/>
     </defs>
     <use xlink:href="#DejaVuSans-53"/>
     <use xlink:href="#DejaVuSans-74" transform="translate(63.476562 0)"/>
     <use xlink:href="#DejaVuSans-75" transform="translate(102.685547 0)"/>
     <use xlink:href="#DejaVuSans-64" transform="translate(166.064453 0)"/>
     <use xlink:href="#DejaVuSans-69" transform="translate(229.541016 0)"/>
     <use xlink:href="#DejaVuSans-65" transform="translate(257.324219 0)"/>
     <use xlink:href="#DejaVuSans-73" transform="translate(318.847656 0)"/>
     <use xlink:href="#DejaVuSans-20" transform="translate(370.947266 0)"/>
     <use xlink:href="#DejaVuSans-69" transform="translate(402.734375 0)"/>
     <use xlink:href="#DejaVuSans-6e" transform="translate(430.517578 0)"/>
     <use xlink:href="#DejaVuSans-63" transform="translate(493.896484 0)"/>
     <use xlink:href="#DejaVuSans-6c" transform="translate(548.876953 0)"/>
     <use xlink:href="#DejaVuSans-75" transform="translate(576.660156 0)"/>
     <use xlink:href="#DejaVuSans-64" transform="translate(640.039062 0)"/>
     <use xlink:href="#DejaVuSans-65" transform="translate(703.515625 0)"/>
     <use xlink:href="#DejaVuSans-64" transform="translate(765.039062 0)"/>
     <use xlink:href="#DejaVuSans-20" transform="translate(828.515625 0)"/>
     <use xlink:href="#DejaVuSans-69" transform="translate(860.302734 0)"/>
     <use xlink:href="#DejaVuSans-6e" transform="translate(888.085938 0)"/>
     <use xlink:href="#DejaVuSans-20" transform="translate(951.464844 0)"/>
     <use xlink:href="#DejaVuSans-72" transform="translate(983.251953 0)"/>
     <use xlink:href="#DejaVuSans-65" transform="translate(1022.115234 0)"/>
     <use xlink:href="#DejaVuSans-76" transform="translate(1083.638672 0)"/>
     <use xlink:href="#DejaVuSans-69" transform="translate(1142.818359 0)"/>
     <use xlink:href="#DejaVuSans-65" transform="translate(1170.601562 0)"/>
     <use xlink:href="#DejaVuSans-77" transform="translate(1232.125 0)"/>
    </g>
   </g>
   <g id="text_18">
    <!-- (n = 53) -->
    <g style="fill: #111111" transform="translate(146.373506 554.821894) scale(0.14 -0.14)">
     <use xlink:href="#DejaVuSans-28"/>
     <use xlink:href="#DejaVuSans-6e" transform="translate(39.013672 0)"/>
     <use xlink:href="#DejaVuSans-20" transform="translate(102.392578 0)"/>
     <use xlink:href="#DejaVuSans-3d" transform="translate(134.179688 0)"/>
     <use xlink:href="#DejaVuSans-20" transform="translate(217.96875 0)"/>
     <use xlink:href="#DejaVuSans-35" transform="translate(249.755859 0)"/>
     <use xlink:href="#DejaVuSans-33" transform="translate(313.378906 0)"/>
     <use xlink:href="#DejaVuSans-29" transform="translate(377.001953 0)"/>
    </g>
   </g>
  </g>
 </g>
 <defs>
  <clipPath id="p97f089424d">
   <rect x="0" y="0" width="508.68" height="633.024"/>
  </clipPath>
  <clipPath id="p163fba0061">
   <path d="M 350.9892 476.35056 
L 483.246 476.35056 
Q 493.4196 476.35056 493.4196 463.69008 
L 493.4196 346.58064 
Q 493.4196 333.92016 483.246 333.92016 
L 350.9892 333.92016 
Q 340.8156 333.92016 340.8156 346.58064 
L 340.8156 463.69008 
Q 340.8156 476.35056 350.9892 476.35056 
z
"/>
  </clipPath>
  <clipPath id="p24a1922856">
   <path d="M 350.9892 476.35056 
L 483.246 476.35056 
Q 493.4196 476.35056 493.4196 463.69008 
L 493.4196 346.58064 
Q 493.4196 333.92016 483.246 333.92016 
L 350.9892 333.92016 
Q 340.8156 333.92016 340.8156 346.58064 
L 340.8156 463.69008 
Q 340.8156 476.35056 350.9892 476.35056 
z
"/>
  </clipPath>
  <clipPath id="p905683ccb6">
   <path d="M 350.9892 476.35056 
L 483.246 476.35056 
Q 493.4196 476.35056 493.4196 463.69008 
L 493.4196 346.58064 
Q 493.4196 333.92016 483.246 333.92016 
L 350.9892 333.92016 
Q 340.8156 333.92016 340.8156 346.58064 
L 340.8156 463.69008 
Q 340.8156 476.35056 350.9892 476.35056 
z
"/>
  </clipPath>
  <clipPath id="p0c6d6c6b5a">
   <path d="M 350.9892 476.35056 
L 483.246 476.35056 
Q 493.4196 476.35056 493.4196 463.69008 
L 493.4196 346.58064 
Q 493.4196 333.92016 483.246 333.92016 
L 350.9892 333.92016 
Q 340.8156 333.92016 340.8156 346.58064 
L 340.8156 463.69008 
Q 340.8156 476.35056 350.9892 476.35056 
z
"/>
  </clipPath>
  <clipPath id="p0b6f67bc16">
   <path d="M 350.9892 476.35056 
L 483.246 476.35056 
Q 493.4196 476.35056 493.4196 463.69008 
L 493.4196 346.58064 
Q 493.4196 333.92016 483.246 333.92016 
L 350.9892 333.92016 
Q 340.8156 333.92016 340.8156 346.58064 
L 340.8156 463.69008 
Q 340.8156 476.35056 350.9892 476.35056 
z
"/>
  </clipPath>
  <clipPath id="pb9df12fa51">
   <path d="M 350.9892 476.35056 
L 483.246 476.35056 
Q 493.4196 476.35056 493.4196 463.69008 
L 493.4196 346.58064 
Q 493.4196 333.92016 483.246 333.92016 
L 350.9892 333.92016 
Q 340.8156 333.92016 340.8156 346.58064 
L 340.8156 463.69008 
Q 340.8156 476.35056 350.9892 476.35056 
z
"/>
  </clipPath>
 </defs>
</svg>
